<svg xmlns="http://www.w3.org/2000/svg" viewBox="0 0 220 220">
  <!-- ALUX team LEGO-style avatar: ben | exported from team page inline version -->
  <rect x="10" y="10" width="200" height="200" rx="42" fill="#fffaf3" stroke="rgba(61,90,114,0.12)" stroke-width="2"/>
  <circle cx="68" cy="62" r="50" fill="#a67951" opacity="0.14"/>
  <circle cx="154" cy="154" r="48" fill="#bea16a" opacity="0.16"/>
  <rect x="30" y="70" width="28" height="13" rx="2.5" fill="#a67951" opacity="0.45" /><rect x="34" y="66" width="8" height="4.5" rx="1.4" fill="#a67951" opacity="0.45" /><rect x="46" y="66" width="8" height="4.5" rx="1.4" fill="#a67951" opacity="0.45" /> <rect x="164" y="116" width="26" height="12" rx="2.5" fill="#bea16a" opacity="0.5" /><rect x="173" y="112" width="8" height="4.5" rx="1.4" fill="#bea16a" opacity="0.5" /> <rect x="34" y="190" width="152" height="14" rx="2.5" fill="#a67951" opacity="0.9" /><rect x="40" y="186" width="8" height="4.5" rx="1.4" fill="#a67951" opacity="0.9" /><rect x="52" y="186" width="8" height="4.5" rx="1.4" fill="#a67951" opacity="0.9" /><rect x="64" y="186" width="8" height="4.5" rx="1.4" fill="#a67951" opacity="0.9" /><rect x="76" y="186" width="8" height="4.5" rx="1.4" fill="#a67951" opacity="0.9" /><rect x="88" y="186" width="8" height="4.5" rx="1.4" fill="#a67951" opacity="0.9" /><rect x="100" y="186" width="8" height="4.5" rx="1.4" fill="#a67951" opacity="0.9" /><rect x="112" y="186" width="8" height="4.5" rx="1.4" fill="#a67951" opacity="0.9" /><rect x="124" y="186" width="8" height="4.5" rx="1.4" fill="#a67951" opacity="0.9" /><rect x="136" y="186" width="8" height="4.5" rx="1.4" fill="#a67951" opacity="0.9" /><rect x="148" y="186" width="8" height="4.5" rx="1.4" fill="#a67951" opacity="0.9" /><rect x="160" y="186" width="8" height="4.5" rx="1.4" fill="#a67951" opacity="0.9" /><rect x="172" y="186" width="8" height="4.5" rx="1.4" fill="#a67951" opacity="0.9" /> <rect x="85" y="142" width="50" height="11" rx="2" fill="#3a3128" /> <rect x="87" y="153" width="22" height="37" rx="2" fill="#3a3128" /> <rect x="111" y="153" width="22" height="37" rx="2" fill="#3a3128" /> <path d="M83 96 L137 96 L143 142 L77 142 Z" fill="#9a9284" /> <rect x="101" y="88" width="18" height="8" fill="#e4b389" />  <rect x="85" y="128" width="50" height="6" rx="2.5" fill="#463e35" /> <path d="M93 102 L127 102 C129.5 102 131 103.5 131 106 L132.5 128 L87.5 128 L89 106 C89 103.5 90.5 102 93 102 Z" fill="#5a5044" /> <rect x="88" y="126.5" width="44" height="3" rx="1.5" fill="#463e35" /> <text x="102" y="117" font-family="monospace" font-size="10.5" font-weight="700" fill="#d8cdb4">&gt;_</text> <path d="M84 98 C75 103 73 113 75 124 L87 128 C85 118 86 107 91 102 Z" fill="#9a9284" /> <path d="M136 98 C145 103 147 113 145 124 L133 128 C135 118 134 107 129 102 Z" fill="#9a9284" /> <circle cx="87" cy="130" r="7.5" fill="#e4b389" /> <circle cx="133" cy="130" r="7.5" fill="#e4b389" /> <rect x="87" y="48" width="46" height="40" rx="10" fill="#e4b389" /> <circle cx="101" cy="65" r="2.7" fill="#26364a" /><circle cx="119" cy="65" r="2.7" fill="#26364a" /> <path d="M90 47 L95 36 L99 42 L104 33 L109 41 L113 32 L118 40 L123 35 L127 45 L128 50 L91 50 Z" fill="#181a1e" /> <path d="M87 55 C88 44 98 41 110 41 C122 41 132 44 133 55 L133 58 C127 51 93 51 87 58 Z" fill="#181a1e" /> <g fill="none" stroke="#26364a" stroke-width="1.6"><circle cx="101" cy="65" r="6.8" /><circle cx="119" cy="65" r="6.8" /><path d="M107.8 65 L112.2 65 M94.2 63.5 L88 61.5 M125.8 63.5 L132 61.5" /></g> <path d="M105 77.5 L115 77.5" stroke="#26364a" stroke-width="2.4" stroke-linecap="round" fill="none" />
</svg>
