<svg xmlns="http://www.w3.org/2000/svg" viewBox="0 0 220 220">
  <!-- ALUX team LEGO-style avatar: frank | exported from team page inline version -->
  <rect x="10" y="10" width="200" height="200" rx="42" fill="#fffaf3" stroke="rgba(61,90,114,0.12)" stroke-width="2"/>
  <circle cx="68" cy="62" r="50" fill="#a67951" opacity="0.14"/>
  <circle cx="154" cy="154" r="48" fill="#6ca07d" opacity="0.16"/>
  <rect x="30" y="70" width="28" height="13" rx="2.5" fill="#a67951" opacity="0.45" /><rect x="34" y="66" width="8" height="4.5" rx="1.4" fill="#a67951" opacity="0.45" /><rect x="46" y="66" width="8" height="4.5" rx="1.4" fill="#a67951" opacity="0.45" /> <rect x="164" y="116" width="26" height="12" rx="2.5" fill="#6ca07d" opacity="0.5" /><rect x="173" y="112" width="8" height="4.5" rx="1.4" fill="#6ca07d" opacity="0.5" /> <rect x="34" y="190" width="152" height="14" rx="2.5" fill="#a67951" opacity="0.9" /><rect x="40" y="186" width="8" height="4.5" rx="1.4" fill="#a67951" opacity="0.9" /><rect x="52" y="186" width="8" height="4.5" rx="1.4" fill="#a67951" opacity="0.9" /><rect x="64" y="186" width="8" height="4.5" rx="1.4" fill="#a67951" opacity="0.9" /><rect x="76" y="186" width="8" height="4.5" rx="1.4" fill="#a67951" opacity="0.9" /><rect x="88" y="186" width="8" height="4.5" rx="1.4" fill="#a67951" opacity="0.9" /><rect x="100" y="186" width="8" height="4.5" rx="1.4" fill="#a67951" opacity="0.9" /><rect x="112" y="186" width="8" height="4.5" rx="1.4" fill="#a67951" opacity="0.9" /><rect x="124" y="186" width="8" height="4.5" rx="1.4" fill="#a67951" opacity="0.9" /><rect x="136" y="186" width="8" height="4.5" rx="1.4" fill="#a67951" opacity="0.9" /><rect x="148" y="186" width="8" height="4.5" rx="1.4" fill="#a67951" opacity="0.9" /><rect x="160" y="186" width="8" height="4.5" rx="1.4" fill="#a67951" opacity="0.9" /><rect x="172" y="186" width="8" height="4.5" rx="1.4" fill="#a67951" opacity="0.9" /> <rect x="85" y="142" width="50" height="11" rx="2" fill="#26364a" /> <rect x="87" y="153" width="22" height="37" rx="2" fill="#34455c" /> <rect x="111" y="153" width="22" height="37" rx="2" fill="#34455c" /> <path d="M83 96 L137 96 L143 142 L77 142 Z" fill="#26364a" /> <rect x="101" y="88" width="18" height="8" fill="#f1c9a4" />  <rect x="85" y="128" width="50" height="6" rx="2.5" fill="#7f93ad" /> <path d="M93 102 L127 102 C129.5 102 131 103.5 131 106 L132.5 128 L87.5 128 L89 106 C89 103.5 90.5 102 93 102 Z" fill="#aebccf" /> <rect x="88" y="126.5" width="44" height="3" rx="1.5" fill="#7f93ad" /> <g fill="#26364a" opacity="0.95"><rect x="98" y="108" width="11" height="6.5" rx="1.5" /><rect x="111" y="108" width="11" height="6.5" rx="1.5" /><rect x="104.5" y="116.5" width="11" height="6.5" rx="1.5" /></g> <path d="M84 98 C75 103 73 113 75 124 L87 128 C85 118 86 107 91 102 Z" fill="#26364a" /> <path d="M136 98 C145 103 147 113 145 124 L133 128 C135 118 134 107 129 102 Z" fill="#26364a" /> <circle cx="87" cy="130" r="7.5" fill="#f1c9a4" /> <circle cx="133" cy="130" r="7.5" fill="#f1c9a4" /> <rect x="87" y="48" width="46" height="40" rx="10" fill="#f1c9a4" /> <circle cx="101" cy="65" r="2.7" fill="#26364a" /><circle cx="119" cy="65" r="2.7" fill="#26364a" /> <path d="M98 73.5 C102 80.5 118 80.5 122 73.5" fill="none" stroke="#26364a" stroke-width="2.6" stroke-linecap="round" /> <path d="M87 55 C88 42 98 37 110 37 C122 37 132 42 133 55 L133 57 C127 50.5 93 50.5 87 57 Z" fill="#1f1a15" /> <g fill="none" stroke="#26364a" stroke-width="1.9"><rect x="92.5" y="60" width="16" height="9.5" rx="2" /><rect x="111.5" y="60" width="16" height="9.5" rx="2" /><path d="M108.5 64 L111.5 64 M92.5 63 L87 61.5 M127.5 63 L133 61.5" /></g>
</svg>
