<svg xmlns="http://www.w3.org/2000/svg" viewBox="0 0 220 220">
  <!-- ALUX team LEGO-style avatar: tomislav | exported from team page inline version -->
  <rect x="10" y="10" width="200" height="200" rx="42" fill="#fffaf3" stroke="rgba(61,90,114,0.12)" stroke-width="2"/>
  <circle cx="68" cy="62" r="50" fill="#a67951" opacity="0.14"/>
  <circle cx="154" cy="154" r="48" fill="#a88eac" opacity="0.16"/>
  <rect x="30" y="70" width="28" height="13" rx="2.5" fill="#a67951" opacity="0.45" /><rect x="34" y="66" width="8" height="4.5" rx="1.4" fill="#a67951" opacity="0.45" /><rect x="46" y="66" width="8" height="4.5" rx="1.4" fill="#a67951" opacity="0.45" /> <rect x="164" y="116" width="26" height="12" rx="2.5" fill="#a88eac" opacity="0.5" /><rect x="173" y="112" width="8" height="4.5" rx="1.4" fill="#a88eac" opacity="0.5" /> <rect x="34" y="190" width="152" height="14" rx="2.5" fill="#a67951" opacity="0.9" /><rect x="40" y="186" width="8" height="4.5" rx="1.4" fill="#a67951" opacity="0.9" /><rect x="52" y="186" width="8" height="4.5" rx="1.4" fill="#a67951" opacity="0.9" /><rect x="64" y="186" width="8" height="4.5" rx="1.4" fill="#a67951" opacity="0.9" /><rect x="76" y="186" width="8" height="4.5" rx="1.4" fill="#a67951" opacity="0.9" /><rect x="88" y="186" width="8" height="4.5" rx="1.4" fill="#a67951" opacity="0.9" /><rect x="100" y="186" width="8" height="4.5" rx="1.4" fill="#a67951" opacity="0.9" /><rect x="112" y="186" width="8" height="4.5" rx="1.4" fill="#a67951" opacity="0.9" /><rect x="124" y="186" width="8" height="4.5" rx="1.4" fill="#a67951" opacity="0.9" /><rect x="136" y="186" width="8" height="4.5" rx="1.4" fill="#a67951" opacity="0.9" /><rect x="148" y="186" width="8" height="4.5" rx="1.4" fill="#a67951" opacity="0.9" /><rect x="160" y="186" width="8" height="4.5" rx="1.4" fill="#a67951" opacity="0.9" /><rect x="172" y="186" width="8" height="4.5" rx="1.4" fill="#a67951" opacity="0.9" /> <rect x="85" y="142" width="50" height="11" rx="2" fill="#30385f" /> <rect x="87" y="153" width="22" height="37" rx="2" fill="#30385f" /> <rect x="111" y="153" width="22" height="37" rx="2" fill="#30385f" /> <path d="M83 96 L137 96 L143 142 L77 142 Z" fill="#8d91b8" /> <rect x="101" y="88" width="18" height="8" fill="#efc9b4" />  <rect x="85" y="128" width="50" height="6" rx="2.5" fill="#363b59" /> <path d="M93 102 L127 102 C129.5 102 131 103.5 131 106 L132.5 128 L87.5 128 L89 106 C89 103.5 90.5 102 93 102 Z" fill="#454b70" /> <rect x="88" y="126.5" width="44" height="3" rx="1.5" fill="#363b59" /> <text x="110" y="117" text-anchor="middle" font-family="monospace" font-size="10.5" font-weight="700" fill="#d6d9ec">C64</text> <path d="M84 98 C75 103 73 113 75 124 L87 128 C85 118 86 107 91 102 Z" fill="#8d91b8" /> <path d="M136 98 C145 103 147 113 145 124 L133 128 C135 118 134 107 129 102 Z" fill="#8d91b8" /> <circle cx="87" cy="130" r="7.5" fill="#efc9b4" /> <circle cx="133" cy="130" r="7.5" fill="#efc9b4" /> <rect x="87" y="48" width="46" height="40" rx="10" fill="#efc9b4" /> <circle cx="101" cy="65" r="2.7" fill="#26364a" /><circle cx="119" cy="65" r="2.7" fill="#26364a" /> <path d="M92 67 C92 87 128 87 128 67 L128 71 C128 84 120 88.5 110 88.5 C100 88.5 92 84 92 71 Z" fill="#8e9299" /> <path d="M100 71.5 C104 68.5 116 68.5 120 71.5 C116 74.5 104 74.5 100 71.5 Z" fill="#8e9299" /> <path d="M106 77.5 C108 79 112 79 114 77.5" stroke="#4a4640" stroke-width="2" stroke-linecap="round" fill="none" /> <path d="M96 58 L106 58 M114 58 L124 58" stroke="#3a352e" stroke-width="2.8" stroke-linecap="round" /> <circle cx="110" cy="29.5" r="6.2" fill="#3b342b" /><g stroke="#57503f" stroke-width="1.2" stroke-linecap="round" opacity="0.9"><path d="M106.5 27 L108 29.5 M111 25.5 L111.5 28.5 M114 28.5 L112.5 30.5 M107 32 L109 31.5" /></g><path d="M84 57 C81.5 26.5 138.5 26.5 136 57 L136 59 L84 59 Z" fill="#23201c" /> <rect x="84" y="55" width="52" height="7" rx="3.5" fill="#332e27" /> <g stroke="#fffaf3" stroke-width="1.4" stroke-linecap="round" opacity="0.75"><path d="M93 41.5 L96.6 45.1 M96.6 41.5 L93 45.1" /><path d="M108.2 36.5 L111.8 40.1 M111.8 36.5 L108.2 40.1" /><path d="M123.4 41.5 L127 45.1 M127 41.5 L123.4 45.1" /></g> <rect x="84.5" y="61" width="7" height="15" rx="3.5" fill="#23201c" /> <rect x="128.5" y="61" width="7" height="15" rx="3.5" fill="#23201c" />
</svg>
